<svg width="18" height="18" viewBox="0 0 18 18" fill="none" xmlns="http://www.w3.org/2000/svg">
<g clip-path="url(#clip0_918_1612)">
<path d="M4.8125 17.1035C4.46875 17.1035 4.1767 16.9817 3.93635 16.7383C3.69545 16.4954 3.575 16.2003 3.575 15.8529V14.5607C3.3275 14.2828 3.12813 13.9735 2.97688 13.6328C2.82563 13.2927 2.75 12.9211 2.75 12.5182V4.5982C2.75 3.44493 3.27938 2.60069 4.33813 2.06546C5.39688 1.53079 7.0675 1.26346 9.35 1.26346C11.715 1.26346 13.4063 1.52051 14.4238 2.03462C15.4413 2.54872 15.95 3.40325 15.95 4.5982V12.5182C15.95 12.9211 15.8744 13.2927 15.7231 13.6328C15.5719 13.9735 15.3725 14.2828 15.125 14.5607V15.8529C15.125 16.2003 15.0046 16.4954 14.7637 16.7383C14.5233 16.9817 14.2313 17.1035 13.8875 17.1035C13.5438 17.1035 13.2517 16.9817 13.0114 16.7383C12.7705 16.4954 12.65 16.2003 12.65 15.8529V15.4361H6.05V15.8529C6.05 16.2003 5.92955 16.4954 5.68865 16.7383C5.4483 16.9817 5.15625 17.1035 4.8125 17.1035ZM4.4 7.93293H14.3V5.43188H4.4V7.93293ZM6.4625 12.935C6.80625 12.935 7.0983 12.8133 7.33865 12.5699C7.57955 12.327 7.7 12.0319 7.7 11.6845C7.7 11.3371 7.57955 11.042 7.33865 10.7991C7.0983 10.5557 6.80625 10.434 6.4625 10.434C6.11875 10.434 5.8267 10.5557 5.58635 10.7991C5.34545 11.042 5.225 11.3371 5.225 11.6845C5.225 12.0319 5.34545 12.327 5.58635 12.5699C5.8267 12.8133 6.11875 12.935 6.4625 12.935ZM12.2375 12.935C12.5813 12.935 12.8733 12.8133 13.1137 12.5699C13.3546 12.327 13.475 12.0319 13.475 11.6845C13.475 11.3371 13.3546 11.042 13.1137 10.7991C12.8733 10.5557 12.5813 10.434 12.2375 10.434C11.8938 10.434 11.6017 10.5557 11.3614 10.7991C11.1205 11.042 11 11.3371 11 11.6845C11 12.0319 11.1205 12.327 11.3614 12.5699C11.6017 12.8133 11.8938 12.935 12.2375 12.935Z" fill="#201B17" fill-opacity="0.6"/>
</g>
<defs>
<clipPath id="clip0_918_1612">
<rect width="17.16" height="17.16" fill="white" transform="translate(0.77002 0.603455)"/>
</clipPath>
</defs>
</svg>
