<svg width="190" height="190" viewBox="0 0 190 190" fill="none" xmlns="http://www.w3.org/2000/svg">
<path d="M0 95C0 42.533 42.533 0 95 0C147.467 0 190 42.533 190 95C190 147.467 147.467 190 95 190C42.533 190 0 147.467 0 95Z" fill="#88C340"/>
<path d="M95 95V0C68.8399 0 45.1563 10.8212 28.0128 28.0128L95 95Z" fill="#EBE07C"/>
<path d="M95 95H0C0 68.8399 10.8212 45.1563 28.0128 28.0128L95 95Z" fill="#EBE07C"/>
<path d="M95 95H0C0 121.16 10.8212 144.844 28.0128 161.987L95 95Z" fill="#B27F47"/>
<path d="M95 95V190C68.8399 190 45.1563 179.179 28.0128 161.987L95 95Z" fill="#B27F47"/>
<path d="M95 95V190C121.16 190 144.844 179.179 161.987 161.987L95 95Z" fill="#60A9FF"/>
<path d="M95 95H190C190 121.16 179.179 144.844 161.987 161.987L95 95Z" fill="#60A9FF"/>
</svg>
