<svg width="32" height="32" viewBox="0 0 32 32" fill="none" xmlns="http://www.w3.org/2000/svg">
<path d="M12.8835 6.10141C13.2549 6.47671 13.4332 6.9302 13.4183 7.46188C13.4022 7.99355 13.2085 8.44704 12.8371 8.82234L7.59101 14.1235H28.2968C28.8229 14.1235 29.2643 14.3036 29.6208 14.6639C29.9761 15.023 30.1538 15.4683 30.1538 16C30.1538 16.5317 29.9761 16.9777 29.6208 17.3379C29.2643 17.697 28.8229 17.8765 28.2968 17.8765H7.59101L12.8835 23.2246C13.2549 23.5999 13.4406 24.0458 13.4406 24.5625C13.4406 25.0779 13.2549 25.5233 12.8835 25.8986C12.5121 26.2739 12.0708 26.4615 11.5595 26.4615C11.0494 26.4615 10.6087 26.2739 10.2373 25.8986L1.7414 17.3135C1.55569 17.1259 1.42384 16.9226 1.34585 16.7037C1.26909 16.4848 1.23071 16.2502 1.23071 16C1.23071 15.7498 1.26909 15.5152 1.34585 15.2963C1.42384 15.0774 1.55569 14.8741 1.7414 14.6864L10.2837 6.05449C10.6241 5.71047 11.0494 5.53845 11.5595 5.53845C12.0708 5.53845 12.5121 5.72611 12.8835 6.10141Z" fill="#6DDE83"/>
</svg>
