<svg width="33" height="32" viewBox="0 0 33 32" fill="none" xmlns="http://www.w3.org/2000/svg">
<path d="M3.20548 25.8462H29.4619C30.3645 25.8462 31.1029 25.1077 31.1029 24.2052C31.1029 23.3026 30.3645 22.5641 29.4619 22.5641H3.20548C2.30291 22.5641 1.56445 23.3026 1.56445 24.2052C1.56445 25.1077 2.30291 25.8462 3.20548 25.8462ZM3.20548 17.641H29.4619C30.3645 17.641 31.1029 16.9026 31.1029 16C31.1029 15.0975 30.3645 14.359 29.4619 14.359H3.20548C2.30291 14.359 1.56445 15.0975 1.56445 16C1.56445 16.9026 2.30291 17.641 3.20548 17.641ZM1.56445 7.7949C1.56445 8.69746 2.30291 9.43592 3.20548 9.43592H29.4619C30.3645 9.43592 31.1029 8.69746 31.1029 7.7949C31.1029 6.89233 30.3645 6.15387 29.4619 6.15387H3.20548C2.30291 6.15387 1.56445 6.89233 1.56445 7.7949Z" fill="#6DDE83"/>
</svg>
