<svg width="33" height="32" viewBox="0 0 33 32" fill="none" xmlns="http://www.w3.org/2000/svg">
<path d="M3.20499 25.8462H29.4614C30.364 25.8462 31.1024 25.1077 31.1024 24.2052C31.1024 23.3026 30.364 22.5641 29.4614 22.5641H3.20499C2.30243 22.5641 1.56396 23.3026 1.56396 24.2052C1.56396 25.1077 2.30243 25.8462 3.20499 25.8462ZM3.20499 17.641H29.4614C30.364 17.641 31.1024 16.9026 31.1024 16C31.1024 15.0975 30.364 14.359 29.4614 14.359H3.20499C2.30243 14.359 1.56396 15.0975 1.56396 16C1.56396 16.9026 2.30243 17.641 3.20499 17.641ZM1.56396 7.7949C1.56396 8.69746 2.30243 9.43592 3.20499 9.43592H29.4614C30.364 9.43592 31.1024 8.69746 31.1024 7.7949C31.1024 6.89233 30.364 6.15387 29.4614 6.15387H3.20499C2.30243 6.15387 1.56396 6.89233 1.56396 7.7949Z" fill="#6DDE83"/>
</svg>
