<svg width="32" height="32" viewBox="0 0 32 32" fill="none" xmlns="http://www.w3.org/2000/svg">
<path d="M22.3333 1.23077H9.0513C7.79322 1.23077 6.58667 1.71704 5.69707 2.58259C4.80748 3.44814 4.30771 4.62208 4.30771 5.84616V26.1538C4.30771 27.3779 4.80748 28.5519 5.69707 29.4174C6.58667 30.283 7.79322 30.7692 9.0513 30.7692H22.3333C23.5914 30.7692 24.798 30.283 25.6876 29.4174C26.5772 28.5519 27.0769 27.3779 27.0769 26.1538V5.84616C27.0769 4.62208 26.5772 3.44814 25.6876 2.58259C24.798 1.71704 23.5914 1.23077 22.3333 1.23077V1.23077ZM10.9487 4.92308H20.4359C21.1908 4.92308 21.9147 5.21484 22.4484 5.73417C22.9822 6.2535 23.2821 6.95787 23.2821 7.69231V9.53847C23.2821 10.2729 22.9822 10.9773 22.4484 11.4966C21.9147 12.0159 21.1908 12.3077 20.4359 12.3077H10.9487C10.1939 12.3077 9.46996 12.0159 8.9362 11.4966C8.40244 10.9773 8.10258 10.2729 8.10258 9.53847V7.69231C8.10258 6.95787 8.40244 6.2535 8.9362 5.73417C9.46996 5.21484 10.1939 4.92308 10.9487 4.92308V4.92308ZM11.8975 17.8462C11.8975 18.3358 11.6975 18.8054 11.3417 19.1516C10.9859 19.4978 10.5032 19.6923 10 19.6923C9.49678 19.6923 9.01416 19.4978 8.65833 19.1516C8.30249 18.8054 8.10258 18.3358 8.10258 17.8462C8.10258 17.3565 8.30249 16.887 8.65833 16.5407C9.01416 16.1945 9.49678 16 10 16C10.5032 16 10.9859 16.1945 11.3417 16.5407C11.6975 16.887 11.8975 17.3565 11.8975 17.8462V17.8462ZM11.8975 23.3846C11.8975 23.8742 11.6975 24.3438 11.3417 24.69C10.9859 25.0363 10.5032 25.2308 10 25.2308C9.49678 25.2308 9.01416 25.0363 8.65833 24.69C8.30249 24.3438 8.10258 23.8742 8.10258 23.3846C8.10258 22.895 8.30249 22.4254 8.65833 22.0792C9.01416 21.733 9.49678 21.5385 10 21.5385C10.5032 21.5385 10.9859 21.733 11.3417 22.0792C11.6975 22.4254 11.8975 22.895 11.8975 23.3846V23.3846ZM21.3846 19.6923C20.8814 19.6923 20.3988 19.4978 20.0429 19.1516C19.6871 18.8054 19.4872 18.3358 19.4872 17.8462C19.4872 17.3565 19.6871 16.887 20.0429 16.5407C20.3988 16.1945 20.8814 16 21.3846 16C21.8879 16 22.3705 16.1945 22.7263 16.5407C23.0822 16.887 23.2821 17.3565 23.2821 17.8462C23.2821 18.3358 23.0822 18.8054 22.7263 19.1516C22.3705 19.4978 21.8879 19.6923 21.3846 19.6923ZM23.2821 23.3846C23.2821 23.8742 23.0822 24.3438 22.7263 24.69C22.3705 25.0363 21.8879 25.2308 21.3846 25.2308C20.8814 25.2308 20.3988 25.0363 20.0429 24.69C19.6871 24.3438 19.4872 23.8742 19.4872 23.3846C19.4872 22.895 19.6871 22.4254 20.0429 22.0792C20.3988 21.733 20.8814 21.5385 21.3846 21.5385C21.8879 21.5385 22.3705 21.733 22.7263 22.0792C23.0822 22.4254 23.2821 22.895 23.2821 23.3846V23.3846ZM15.6923 19.6923C15.1891 19.6923 14.7065 19.4978 14.3506 19.1516C13.9948 18.8054 13.7949 18.3358 13.7949 17.8462C13.7949 17.3565 13.9948 16.887 14.3506 16.5407C14.7065 16.1945 15.1891 16 15.6923 16C16.1956 16 16.6782 16.1945 17.034 16.5407C17.3899 16.887 17.5898 17.3565 17.5898 17.8462C17.5898 18.3358 17.3899 18.8054 17.034 19.1516C16.6782 19.4978 16.1956 19.6923 15.6923 19.6923ZM17.5898 23.3846C17.5898 23.8742 17.3899 24.3438 17.034 24.69C16.6782 25.0363 16.1956 25.2308 15.6923 25.2308C15.1891 25.2308 14.7065 25.0363 14.3506 24.69C13.9948 24.3438 13.7949 23.8742 13.7949 23.3846C13.7949 22.895 13.9948 22.4254 14.3506 22.0792C14.7065 21.733 15.1891 21.5385 15.6923 21.5385C16.1956 21.5385 16.6782 21.733 17.034 22.0792C17.3899 22.4254 17.5898 22.895 17.5898 23.3846V23.3846Z" fill="#6DDE83"/>
</svg>
